# xmcd CD database file
#
# Track frame offsets:
#	183
#	16360
#	31150
#	44783
#	61460
#	75540
#	87220
#	101598
#	115608
#	134165
#
# Disc length: 1962 seconds
#
# Revision: 2
# Processed by: cddbd v1.5.2PL0 Copyright (c) Steve Scherf et al.
# Submitted via: CDex 1.51
#
DISCID=8007a80a
DTITLE=譚詠麟 - 情心義膽
DYEAR=1993
DGENRE=Pop
TTITLE0=壯志豪情 
TTITLE1=你是我的女人 
TTITLE2=無名份的結束 
TTITLE3=永遠都深愛你 
TTITLE4=Lawman(執法者) 
TTITLE5=烈火街頭 
TTITLE6=豪情夜 
TTITLE7=仍是任性 
TTITLE8=決鬥 
TTITLE9=紅塵歲月 
EXTD=YEAR: 1993
EXTT0=
EXTT1=
EXTT2=
EXTT3=
EXTT4=
EXTT5=
EXTT6=
EXTT7=
EXTT8=
EXTT9=
PLAYORDER=
